<svg width="26" height="25" viewBox="0 0 26 25" fill="none" xmlns="http://www.w3.org/2000/svg">
<path d="M22.2811 15.625H9.55781L9.84188 17.1875H21.492C22.1604 17.1875 22.6559 17.8858 22.5077 18.6191L22.2683 19.8044C23.0795 20.2475 23.6389 21.183 23.6389 22.2656C23.6389 23.7892 22.5313 25.0217 21.1726 24.9997C19.8782 24.9788 18.8136 23.797 18.7787 22.3412C18.7596 21.5459 19.0428 20.8251 19.508 20.3124H10.4087C10.8591 20.8088 11.1389 21.5003 11.1389 22.2656C11.1389 23.819 9.9875 25.0699 8.59245 24.997C7.35373 24.9323 6.34631 23.8063 6.28121 22.4131C6.23095 21.3373 6.73416 20.389 7.4987 19.8943L4.44978 3.125H1.41667C0.841363 3.125 0.375 2.60034 0.375 1.95312V1.17187C0.375 0.524658 0.841363 0 1.41667 0H5.86671C6.36155 0 6.78806 0.39165 6.88724 0.937012L7.28507 3.125H24.3329C25.0013 3.125 25.4968 3.82329 25.3487 4.55659L23.2969 14.7128C23.1891 15.2464 22.7675 15.625 22.2811 15.625ZM17.8676 9.375H16V6.44531C16 6.12173 15.7668 5.85937 15.4792 5.85937H14.4375C14.1499 5.85937 13.9167 6.12173 13.9167 6.44531V9.375H12.0491C11.5851 9.375 11.3527 10.0062 11.6808 10.3752L14.5901 13.6481C14.7934 13.877 15.1232 13.877 15.3266 13.6481L18.2359 10.3752C18.564 10.0062 18.3316 9.375 17.8676 9.375Z" fill="#C4C4C4"/>
</svg>
