<svg width="26" height="25" viewBox="0 0 26 25" fill="none" xmlns="http://www.w3.org/2000/svg">
<path d="M23.2812 12.5H2.96875C2.34715 12.5 1.75101 12.7822 1.31147 13.2845C0.87193 13.7869 0.625 14.4682 0.625 15.1786C0.625 15.889 0.87193 16.5703 1.31147 17.0726C1.75101 17.5749 2.34715 17.8571 2.96875 17.8571H23.2812C23.9029 17.8571 24.499 17.5749 24.9385 17.0726C25.3781 16.5703 25.625 15.889 25.625 15.1786C25.625 14.4682 25.3781 13.7869 24.9385 13.2845C24.499 12.7822 23.9029 12.5 23.2812 12.5ZM24.0625 19.6429H2.1875C1.9803 19.6429 1.78159 19.7369 1.63507 19.9044C1.48856 20.0718 1.40625 20.2989 1.40625 20.5357V21.4286C1.40625 22.3758 1.73549 23.2842 2.32154 23.954C2.90759 24.6237 3.70245 25 4.53125 25H21.7188C22.5476 25 23.3424 24.6237 23.9285 23.954C24.5145 23.2842 24.8438 22.3758 24.8438 21.4286V20.5357C24.8438 20.2989 24.7614 20.0718 24.6149 19.9044C24.4684 19.7369 24.2697 19.6429 24.0625 19.6429ZM3.48828 10.7143H22.7617C24.4497 10.7143 25.4287 8.26451 24.4619 6.47991C22.5 2.85714 18.1812 0.00558036 13.125 0C8.06934 0.00558036 3.75 2.85714 1.78809 6.47935C0.820312 8.26395 1.80029 10.7143 3.48828 10.7143ZM19.375 4.46429C19.5295 4.46429 19.6806 4.51665 19.809 4.61476C19.9375 4.71287 20.0376 4.85231 20.0968 5.01546C20.1559 5.17861 20.1714 5.35813 20.1412 5.53133C20.1111 5.70453 20.0367 5.86362 19.9274 5.98849C19.8182 6.11336 19.679 6.19839 19.5274 6.23284C19.3759 6.26729 19.2188 6.24961 19.076 6.18204C18.9333 6.11446 18.8113 6.00002 18.7254 5.85319C18.6396 5.70636 18.5938 5.53373 18.5938 5.35714C18.5938 5.12034 18.6761 4.89324 18.8226 4.7258C18.9691 4.55835 19.1678 4.46429 19.375 4.46429ZM13.125 2.67857C13.2795 2.67857 13.4306 2.73094 13.559 2.82905C13.6875 2.92715 13.7877 3.0666 13.8468 3.22975C13.9059 3.3929 13.9214 3.57242 13.8912 3.74562C13.8611 3.91881 13.7867 4.07791 13.6774 4.20277C13.5682 4.32764 13.429 4.41268 13.2774 4.44713C13.1259 4.48158 12.9688 4.4639 12.826 4.39632C12.6833 4.32874 12.5613 4.2143 12.4754 4.06747C12.3896 3.92064 12.3438 3.74802 12.3438 3.57143C12.3438 3.33463 12.4261 3.10753 12.5726 2.94008C12.7191 2.77264 12.9178 2.67857 13.125 2.67857ZM6.875 4.46429C7.02952 4.46429 7.18056 4.51665 7.30904 4.61476C7.43752 4.71287 7.53765 4.85231 7.59678 5.01546C7.65591 5.17861 7.67138 5.35813 7.64124 5.53133C7.61109 5.70453 7.53669 5.86362 7.42743 5.98849C7.31817 6.11336 7.17896 6.19839 7.02741 6.23284C6.87587 6.26729 6.71878 6.24961 6.57603 6.18204C6.43327 6.11446 6.31126 6.00002 6.22541 5.85319C6.13957 5.70636 6.09375 5.53373 6.09375 5.35714C6.09375 5.12034 6.17606 4.89324 6.32257 4.7258C6.46909 4.55835 6.6678 4.46429 6.875 4.46429Z" fill="#C4C4C4"/>
</svg>
