<svg width="26" height="25" viewBox="0 0 26 25" fill="none" xmlns="http://www.w3.org/2000/svg">
<path d="M7.125 10.9375C10.5792 10.9375 13.375 8.49121 13.375 5.46875C13.375 2.44629 10.5792 0 7.125 0C3.67076 0 0.875 2.44629 0.875 5.46875C0.875 8.49121 3.67076 10.9375 7.125 10.9375ZM7.125 3.125C8.60379 3.125 9.80357 4.1748 9.80357 5.46875C9.80357 6.7627 8.60379 7.8125 7.125 7.8125C5.64621 7.8125 4.44643 6.7627 4.44643 5.46875C4.44643 4.1748 5.64621 3.125 7.125 3.125ZM19.625 14.0625C16.1708 14.0625 13.375 16.5088 13.375 19.5312C13.375 22.5537 16.1708 25 19.625 25C23.0792 25 25.875 22.5537 25.875 19.5312C25.875 16.5088 23.0792 14.0625 19.625 14.0625ZM19.625 21.875C18.1462 21.875 16.9464 20.8252 16.9464 19.5312C16.9464 18.2373 18.1462 17.1875 19.625 17.1875C21.1038 17.1875 22.3036 18.2373 22.3036 19.5312C22.3036 20.8252 21.1038 21.875 19.625 21.875ZM22.7667 0.00976562L24.5301 0.00488281C25.6127 0 26.2545 1.06934 25.6295 1.85059L5.1942 24.4922C5.07098 24.6459 4.90726 24.7715 4.71688 24.8582C4.5265 24.9449 4.31506 24.9902 4.10045 24.9902L2.23661 24.9951C1.14844 24.9951 0.512277 23.9258 1.13728 23.1494L21.673 0.507812C21.9241 0.195312 22.3315 0.00976562 22.7667 0.00976562Z" fill="#C4C4C4"/>
</svg>
