<svg width="26" height="25" viewBox="0 0 26 25" fill="none" xmlns="http://www.w3.org/2000/svg">
<path d="M12.625 14.0625C16.5068 14.0625 19.6562 10.9131 19.6562 7.03125C19.6562 3.14941 16.5068 0 12.625 0C8.74316 0 5.59375 3.14941 5.59375 7.03125C5.59375 10.9131 8.74316 14.0625 12.625 14.0625ZM18.875 15.625H16.1846C15.1006 16.123 13.8945 16.4062 12.625 16.4062C11.3555 16.4062 10.1543 16.123 9.06543 15.625H6.375C2.92285 15.625 0.125 18.4229 0.125 21.875V22.6562C0.125 23.9502 1.1748 25 2.46875 25H22.7812C24.0752 25 25.125 23.9502 25.125 22.6562V21.875C25.125 18.4229 22.3271 15.625 18.875 15.625Z" fill="#C4C4C4"/>
</svg>
